<svg xmlns="http://www.w3.org/2000/svg" viewBox="0 0 420 680" role="img" aria-label="皇帝">
<defs><radialGradient id="g" cx="50%" cy="20%" r="75%"><stop offset="0" stop-color="#263c68"/><stop offset="1" stop-color="#0b1831"/></radialGradient><pattern id="stars" width="72" height="72" patternUnits="userSpaceOnUse"><circle cx="13" cy="18" r="1.4" fill="#e6c875" opacity=".7"/><circle cx="47" cy="34" r=".9" fill="#fff6d8" opacity=".5"/><circle cx="62" cy="8" r=".8" fill="#e6c875" opacity=".38"/></pattern></defs>
<rect x="10" y="10" width="400" height="660" rx="28" fill="url(#g)"/><rect x="10" y="10" width="400" height="660" rx="28" fill="url(#stars)" opacity=".55"/><rect x="26" y="26" width="368" height="628" rx="22" fill="none" stroke="#e6c875" stroke-width="3" opacity=".78"/><rect x="42" y="42" width="336" height="596" rx="18" fill="none" stroke="#fff" stroke-width="1.3" opacity=".16"/>
<text x="54" y="82" fill="#e6c875" font-family="Georgia, serif" font-size="34" font-weight="700">04</text><text x="210" y="112" fill="#f7f1e2" font-family="Noto Sans TC, PingFang TC, sans-serif" font-size="30" font-weight="700" text-anchor="middle">皇帝</text><text x="210" y="145" fill="#e6c875" font-family="Noto Sans TC, PingFang TC, sans-serif" font-size="17" text-anchor="middle" opacity=".88">建立秩序</text><g opacity=".95"><path fill="none" stroke="#e6c875" stroke-width="4" stroke-linecap="round" stroke-linejoin="round" d="M210 295l23.75 63.333333333333336h63.333333333333336l-47.5 38l19 63.333333333333336l-63.333333333333336-95l-63.333333333333336 95l19-63.333333333333336l-47.5-38h63.333333333333336z"/></g><path d="M92 574h236" stroke="#e6c875" stroke-width="2" opacity=".45"/><text x="210" y="614" fill="#f7f1e2" font-family="Georgia, serif" font-size="19" text-anchor="middle" opacity=".78">The Emperor</text></svg>
