<svg xmlns="http://www.w3.org/2000/svg" viewBox="0 0 420 680" role="img" aria-label="錢幣皇后">
<defs><radialGradient id="g" cx="50%" cy="20%" r="75%"><stop offset="0" stop-color="#263c68"/><stop offset="1" stop-color="#121d19"/></radialGradient><pattern id="stars" width="72" height="72" patternUnits="userSpaceOnUse"><circle cx="13" cy="18" r="1.4" fill="#d4c46f" opacity=".7"/><circle cx="47" cy="34" r=".9" fill="#fff6d8" opacity=".5"/><circle cx="62" cy="8" r=".8" fill="#d4c46f" opacity=".38"/></pattern></defs>
<rect x="10" y="10" width="400" height="660" rx="28" fill="url(#g)"/><rect x="10" y="10" width="400" height="660" rx="28" fill="url(#stars)" opacity=".55"/><rect x="26" y="26" width="368" height="628" rx="22" fill="none" stroke="#d4c46f" stroke-width="3" opacity=".78"/><rect x="42" y="42" width="336" height="596" rx="18" fill="none" stroke="#fff" stroke-width="1.3" opacity=".16"/>
<text x="54" y="82" fill="#d4c46f" font-family="Georgia, serif" font-size="34" font-weight="700">皇后</text><text x="210" y="112" fill="#f7f1e2" font-family="Noto Sans TC, PingFang TC, sans-serif" font-size="30" font-weight="700" text-anchor="middle">錢幣皇后</text><text x="210" y="145" fill="#d4c46f" font-family="Noto Sans TC, PingFang TC, sans-serif" font-size="17" text-anchor="middle" opacity=".88">現實・成熟照顧</text><g opacity=".95"><circle fill="none" stroke="#d4c46f" stroke-width="4" stroke-linecap="round" stroke-linejoin="round" cx="210" cy="250" r="15"/><path fill="none" stroke="#d4c46f" stroke-width="4" stroke-linecap="round" stroke-linejoin="round" d="M210 241v18M201 250h18"/>
<circle fill="none" stroke="#d4c46f" stroke-width="4" stroke-linecap="round" stroke-linejoin="round" cx="140" cy="330" r="15"/><path fill="none" stroke="#d4c46f" stroke-width="4" stroke-linecap="round" stroke-linejoin="round" d="M140 321v18M131 330h18"/>
<circle fill="none" stroke="#d4c46f" stroke-width="4" stroke-linecap="round" stroke-linejoin="round" cx="280" cy="330" r="15"/><path fill="none" stroke="#d4c46f" stroke-width="4" stroke-linecap="round" stroke-linejoin="round" d="M280 321v18M271 330h18"/>
<circle fill="none" stroke="#d4c46f" stroke-width="4" stroke-linecap="round" stroke-linejoin="round" cx="140" cy="430" r="15"/><path fill="none" stroke="#d4c46f" stroke-width="4" stroke-linecap="round" stroke-linejoin="round" d="M140 421v18M131 430h18"/>
<circle fill="none" stroke="#d4c46f" stroke-width="4" stroke-linecap="round" stroke-linejoin="round" cx="280" cy="430" r="15"/><path fill="none" stroke="#d4c46f" stroke-width="4" stroke-linecap="round" stroke-linejoin="round" d="M280 421v18M271 430h18"/>
<circle fill="none" stroke="#d4c46f" stroke-width="4" stroke-linecap="round" stroke-linejoin="round" cx="210" cy="510" r="15"/><path fill="none" stroke="#d4c46f" stroke-width="4" stroke-linecap="round" stroke-linejoin="round" d="M210 501v18M201 510h18"/>
<circle fill="none" stroke="#d4c46f" stroke-width="4" stroke-linecap="round" stroke-linejoin="round" cx="140" cy="590" r="15"/><path fill="none" stroke="#d4c46f" stroke-width="4" stroke-linecap="round" stroke-linejoin="round" d="M140 581v18M131 590h18"/>
<circle fill="none" stroke="#d4c46f" stroke-width="4" stroke-linecap="round" stroke-linejoin="round" cx="280" cy="590" r="15"/><path fill="none" stroke="#d4c46f" stroke-width="4" stroke-linecap="round" stroke-linejoin="round" d="M280 581v18M271 590h18"/>
<circle fill="none" stroke="#d4c46f" stroke-width="4" stroke-linecap="round" stroke-linejoin="round" cx="210" cy="650" r="15"/><path fill="none" stroke="#d4c46f" stroke-width="4" stroke-linecap="round" stroke-linejoin="round" d="M210 641v18M201 650h18"/>
<circle fill="none" stroke="#d4c46f" stroke-width="4" stroke-linecap="round" stroke-linejoin="round" cx="210" cy="390" r="15"/><path fill="none" stroke="#d4c46f" stroke-width="4" stroke-linecap="round" stroke-linejoin="round" d="M210 381v18M201 390h18"/>
<circle fill="none" stroke="#d4c46f" stroke-width="4" stroke-linecap="round" stroke-linejoin="round" cx="140" cy="250" r="15"/><path fill="none" stroke="#d4c46f" stroke-width="4" stroke-linecap="round" stroke-linejoin="round" d="M140 241v18M131 250h18"/>
<circle fill="none" stroke="#d4c46f" stroke-width="4" stroke-linecap="round" stroke-linejoin="round" cx="280" cy="250" r="15"/><path fill="none" stroke="#d4c46f" stroke-width="4" stroke-linecap="round" stroke-linejoin="round" d="M280 241v18M271 250h18"/>
<circle fill="none" stroke="#d4c46f" stroke-width="4" stroke-linecap="round" stroke-linejoin="round" cx="140" cy="650" r="15"/><path fill="none" stroke="#d4c46f" stroke-width="4" stroke-linecap="round" stroke-linejoin="round" d="M140 641v18M131 650h18"/></g><path d="M92 574h236" stroke="#d4c46f" stroke-width="2" opacity=".45"/><text x="210" y="614" fill="#f7f1e2" font-family="Georgia, serif" font-size="19" text-anchor="middle" opacity=".78">Queen of Pentacles</text></svg>
