<svg xmlns="http://www.w3.org/2000/svg" viewBox="0 0 420 680" role="img" aria-label="寶劍二">
<defs><radialGradient id="g" cx="50%" cy="20%" r="75%"><stop offset="0" stop-color="#263c68"/><stop offset="1" stop-color="#111a2c"/></radialGradient><pattern id="stars" width="72" height="72" patternUnits="userSpaceOnUse"><circle cx="13" cy="18" r="1.4" fill="#c9d7f0" opacity=".7"/><circle cx="47" cy="34" r=".9" fill="#fff6d8" opacity=".5"/><circle cx="62" cy="8" r=".8" fill="#c9d7f0" opacity=".38"/></pattern></defs>
<rect x="10" y="10" width="400" height="660" rx="28" fill="url(#g)"/><rect x="10" y="10" width="400" height="660" rx="28" fill="url(#stars)" opacity=".55"/><rect x="26" y="26" width="368" height="628" rx="22" fill="none" stroke="#c9d7f0" stroke-width="3" opacity=".78"/><rect x="42" y="42" width="336" height="596" rx="18" fill="none" stroke="#fff" stroke-width="1.3" opacity=".16"/>
<text x="54" y="82" fill="#c9d7f0" font-family="Georgia, serif" font-size="34" font-weight="700">二</text><text x="210" y="112" fill="#f7f1e2" font-family="Noto Sans TC, PingFang TC, sans-serif" font-size="30" font-weight="700" text-anchor="middle">寶劍二</text><text x="210" y="145" fill="#c9d7f0" font-family="Noto Sans TC, PingFang TC, sans-serif" font-size="17" text-anchor="middle" opacity=".88">思考・選擇與平衡</text><g opacity=".95"><path fill="none" stroke="#c9d7f0" stroke-width="4" stroke-linecap="round" stroke-linejoin="round" d="M210 227.5v35.1M198.75 252.25h22.5M204.375 262.6l-5.625 9M215.625 262.6l5.625 9"/>
<path fill="none" stroke="#c9d7f0" stroke-width="4" stroke-linecap="round" stroke-linejoin="round" d="M140 307.5v35.1M128.75 332.25h22.5M134.375 342.6l-5.625 9M145.625 342.6l5.625 9"/></g><path d="M92 574h236" stroke="#c9d7f0" stroke-width="2" opacity=".45"/><text x="210" y="614" fill="#f7f1e2" font-family="Georgia, serif" font-size="19" text-anchor="middle" opacity=".78">Two of Swords</text></svg>
