<svg xmlns="http://www.w3.org/2000/svg" viewBox="0 0 420 680" role="img" aria-label="權杖八">
<defs><radialGradient id="g" cx="50%" cy="20%" r="75%"><stop offset="0" stop-color="#263c68"/><stop offset="1" stop-color="#241323"/></radialGradient><pattern id="stars" width="72" height="72" patternUnits="userSpaceOnUse"><circle cx="13" cy="18" r="1.4" fill="#f0a45d" opacity=".7"/><circle cx="47" cy="34" r=".9" fill="#fff6d8" opacity=".5"/><circle cx="62" cy="8" r=".8" fill="#f0a45d" opacity=".38"/></pattern></defs>
<rect x="10" y="10" width="400" height="660" rx="28" fill="url(#g)"/><rect x="10" y="10" width="400" height="660" rx="28" fill="url(#stars)" opacity=".55"/><rect x="26" y="26" width="368" height="628" rx="22" fill="none" stroke="#f0a45d" stroke-width="3" opacity=".78"/><rect x="42" y="42" width="336" height="596" rx="18" fill="none" stroke="#fff" stroke-width="1.3" opacity=".16"/>
<text x="54" y="82" fill="#f0a45d" font-family="Georgia, serif" font-size="34" font-weight="700">八</text><text x="210" y="112" fill="#f7f1e2" font-family="Noto Sans TC, PingFang TC, sans-serif" font-size="30" font-weight="700" text-anchor="middle">權杖八</text><text x="210" y="145" fill="#f0a45d" font-family="Noto Sans TC, PingFang TC, sans-serif" font-size="17" text-anchor="middle" opacity=".88">行動・練習與速度</text><g opacity=".95"><path fill="none" stroke="#f0a45d" stroke-width="4" stroke-linecap="round" stroke-linejoin="round" d="M210 227.5v45"/><path fill="none" stroke="#f0a45d" stroke-width="4" stroke-linecap="round" stroke-linejoin="round" d="M202.5 235h15"/>
<path fill="none" stroke="#f0a45d" stroke-width="4" stroke-linecap="round" stroke-linejoin="round" d="M140 307.5v45"/><path fill="none" stroke="#f0a45d" stroke-width="4" stroke-linecap="round" stroke-linejoin="round" d="M132.5 315h15"/>
<path fill="none" stroke="#f0a45d" stroke-width="4" stroke-linecap="round" stroke-linejoin="round" d="M280 307.5v45"/><path fill="none" stroke="#f0a45d" stroke-width="4" stroke-linecap="round" stroke-linejoin="round" d="M272.5 315h15"/>
<path fill="none" stroke="#f0a45d" stroke-width="4" stroke-linecap="round" stroke-linejoin="round" d="M140 407.5v45"/><path fill="none" stroke="#f0a45d" stroke-width="4" stroke-linecap="round" stroke-linejoin="round" d="M132.5 415h15"/>
<path fill="none" stroke="#f0a45d" stroke-width="4" stroke-linecap="round" stroke-linejoin="round" d="M280 407.5v45"/><path fill="none" stroke="#f0a45d" stroke-width="4" stroke-linecap="round" stroke-linejoin="round" d="M272.5 415h15"/>
<path fill="none" stroke="#f0a45d" stroke-width="4" stroke-linecap="round" stroke-linejoin="round" d="M210 487.5v45"/><path fill="none" stroke="#f0a45d" stroke-width="4" stroke-linecap="round" stroke-linejoin="round" d="M202.5 495h15"/>
<path fill="none" stroke="#f0a45d" stroke-width="4" stroke-linecap="round" stroke-linejoin="round" d="M140 567.5v45"/><path fill="none" stroke="#f0a45d" stroke-width="4" stroke-linecap="round" stroke-linejoin="round" d="M132.5 575h15"/>
<path fill="none" stroke="#f0a45d" stroke-width="4" stroke-linecap="round" stroke-linejoin="round" d="M280 567.5v45"/><path fill="none" stroke="#f0a45d" stroke-width="4" stroke-linecap="round" stroke-linejoin="round" d="M272.5 575h15"/></g><path d="M92 574h236" stroke="#f0a45d" stroke-width="2" opacity=".45"/><text x="210" y="614" fill="#f7f1e2" font-family="Georgia, serif" font-size="19" text-anchor="middle" opacity=".78">Eight of Wands</text></svg>
