<svg xmlns="http://www.w3.org/2000/svg" viewBox="0 0 420 680" role="img" aria-label="聖杯八">
<defs><radialGradient id="g" cx="50%" cy="20%" r="75%"><stop offset="0" stop-color="#263c68"/><stop offset="1" stop-color="#0d1d36"/></radialGradient><pattern id="stars" width="72" height="72" patternUnits="userSpaceOnUse"><circle cx="13" cy="18" r="1.4" fill="#72d7db" opacity=".7"/><circle cx="47" cy="34" r=".9" fill="#fff6d8" opacity=".5"/><circle cx="62" cy="8" r=".8" fill="#72d7db" opacity=".38"/></pattern></defs>
<rect x="10" y="10" width="400" height="660" rx="28" fill="url(#g)"/><rect x="10" y="10" width="400" height="660" rx="28" fill="url(#stars)" opacity=".55"/><rect x="26" y="26" width="368" height="628" rx="22" fill="none" stroke="#72d7db" stroke-width="3" opacity=".78"/><rect x="42" y="42" width="336" height="596" rx="18" fill="none" stroke="#fff" stroke-width="1.3" opacity=".16"/>
<text x="54" y="82" fill="#72d7db" font-family="Georgia, serif" font-size="34" font-weight="700">八</text><text x="210" y="112" fill="#f7f1e2" font-family="Noto Sans TC, PingFang TC, sans-serif" font-size="30" font-weight="700" text-anchor="middle">聖杯八</text><text x="210" y="145" fill="#72d7db" font-family="Noto Sans TC, PingFang TC, sans-serif" font-size="17" text-anchor="middle" opacity=".88">感受・練習與速度</text><g opacity=".95"><path fill="none" stroke="#72d7db" stroke-width="4" stroke-linecap="round" stroke-linejoin="round" d="M195 238.75h30v9c0 11.25-7.5 22.5-15 22.5s-15-11.25-15-22.5z"/><path fill="none" stroke="#72d7db" stroke-width="4" stroke-linecap="round" stroke-linejoin="round" d="M210 261.25v11.25M201 272.5h18"/>
<path fill="none" stroke="#72d7db" stroke-width="4" stroke-linecap="round" stroke-linejoin="round" d="M125 318.75h30v9c0 11.25-7.5 22.5-15 22.5s-15-11.25-15-22.5z"/><path fill="none" stroke="#72d7db" stroke-width="4" stroke-linecap="round" stroke-linejoin="round" d="M140 341.25v11.25M131 352.5h18"/>
<path fill="none" stroke="#72d7db" stroke-width="4" stroke-linecap="round" stroke-linejoin="round" d="M265 318.75h30v9c0 11.25-7.5 22.5-15 22.5s-15-11.25-15-22.5z"/><path fill="none" stroke="#72d7db" stroke-width="4" stroke-linecap="round" stroke-linejoin="round" d="M280 341.25v11.25M271 352.5h18"/>
<path fill="none" stroke="#72d7db" stroke-width="4" stroke-linecap="round" stroke-linejoin="round" d="M125 418.75h30v9c0 11.25-7.5 22.5-15 22.5s-15-11.25-15-22.5z"/><path fill="none" stroke="#72d7db" stroke-width="4" stroke-linecap="round" stroke-linejoin="round" d="M140 441.25v11.25M131 452.5h18"/>
<path fill="none" stroke="#72d7db" stroke-width="4" stroke-linecap="round" stroke-linejoin="round" d="M265 418.75h30v9c0 11.25-7.5 22.5-15 22.5s-15-11.25-15-22.5z"/><path fill="none" stroke="#72d7db" stroke-width="4" stroke-linecap="round" stroke-linejoin="round" d="M280 441.25v11.25M271 452.5h18"/>
<path fill="none" stroke="#72d7db" stroke-width="4" stroke-linecap="round" stroke-linejoin="round" d="M195 498.75h30v9c0 11.25-7.5 22.5-15 22.5s-15-11.25-15-22.5z"/><path fill="none" stroke="#72d7db" stroke-width="4" stroke-linecap="round" stroke-linejoin="round" d="M210 521.25v11.25M201 532.5h18"/>
<path fill="none" stroke="#72d7db" stroke-width="4" stroke-linecap="round" stroke-linejoin="round" d="M125 578.75h30v9c0 11.25-7.5 22.5-15 22.5s-15-11.25-15-22.5z"/><path fill="none" stroke="#72d7db" stroke-width="4" stroke-linecap="round" stroke-linejoin="round" d="M140 601.25v11.25M131 612.5h18"/>
<path fill="none" stroke="#72d7db" stroke-width="4" stroke-linecap="round" stroke-linejoin="round" d="M265 578.75h30v9c0 11.25-7.5 22.5-15 22.5s-15-11.25-15-22.5z"/><path fill="none" stroke="#72d7db" stroke-width="4" stroke-linecap="round" stroke-linejoin="round" d="M280 601.25v11.25M271 612.5h18"/></g><path d="M92 574h236" stroke="#72d7db" stroke-width="2" opacity=".45"/><text x="210" y="614" fill="#f7f1e2" font-family="Georgia, serif" font-size="19" text-anchor="middle" opacity=".78">Eight of Cups</text></svg>
